<svg width="31" height="31" viewBox="0 0 31 31" fill="none" xmlns="http://www.w3.org/2000/svg">
<path fill-rule="evenodd" clip-rule="evenodd" d="M20.9064 27.2074H10.4716C6.63863 27.2074 3.69813 25.823 4.53337 20.2509L5.50591 12.6994C6.02078 9.91911 7.79424 8.85504 9.3503 8.85504H22.0734C23.6524 8.85504 25.3228 9.99921 25.9178 12.6994L26.8904 20.2509C27.5997 25.1937 24.7393 27.2074 20.9064 27.2074Z" stroke="white" stroke-width="2" stroke-linecap="round" stroke-linejoin="round"/>
<path d="M21.0777 8.58044C21.0777 5.59785 18.6598 3.17998 15.6772 3.17998V3.17998C14.241 3.17389 12.8615 3.74018 11.8437 4.75362C10.826 5.76707 10.2539 7.14417 10.2539 8.58044H10.2539" stroke="white" stroke-width="2" stroke-linecap="round" stroke-linejoin="round"/>
<path d="M19.3839 14.2097H19.3267" stroke="white" stroke-width="2" stroke-linecap="round" stroke-linejoin="round"/>
<path d="M12.0968 14.2097H12.0396" stroke="white" stroke-width="2" stroke-linecap="round" stroke-linejoin="round"/>
</svg>
