<svg width="21" height="171" viewBox="0 0 21 171" fill="none" xmlns="http://www.w3.org/2000/svg">
<path d="M3.98415 17.8608V8.06084H0.414148V9.53084H2.33215V17.8608H3.98415ZM8.19421 19.4988L12.6322 6.43684H11.2602L6.82221 19.4988H8.19421ZM16.889 12.1348L19.689 9.11084V8.07484H13.725V9.54484H17.645L15.097 12.2888V13.2548H16.455C17.757 13.2548 18.527 13.8008 18.527 14.8648C18.527 15.8728 17.771 16.5448 16.469 16.5448C15.573 16.5448 14.663 16.1808 13.963 15.5228L13.277 16.8668C14.117 17.5108 15.377 17.9308 16.581 17.9308C18.765 17.9308 20.151 16.6568 20.151 14.8228C20.151 13.2828 19.031 12.3308 17.393 12.1908L16.889 12.1348Z" fill="#C2C2C2"/>
<path d="M10.5 49.4451L10.5 151.434" stroke="#676767"/>
<circle cx="10.4982" cy="163.062" r="7.05097" stroke="#676767"/>
<circle cx="10.4975" cy="163.062" r="3.65371" fill="#676767"/>
</svg>
