<svg width="900" height="130" viewBox="0 0 900 130" fill="none" xmlns="http://www.w3.org/2000/svg">
<path d="M492.721 0.973633H899.427L869.328 129.837H462.621L492.721 0.973633Z" fill="#FF0000"/>
<path d="M52.7715 60.8251H32.2148V47.0556C32.2148 43.0517 31.987 40.5614 31.5312 39.5849C31.1081 38.5758 30.1478 38.0712 28.6504 38.0712C26.9577 38.0712 25.8835 38.6734 25.4277 39.8778C24.972 41.0823 24.7441 43.6864 24.7441 47.6903V84.4091C24.7441 88.2502 24.972 90.7567 25.4277 91.9286C25.8835 93.1005 26.9089 93.6864 28.5039 93.6864C30.0339 93.6864 31.0267 93.1005 31.4824 91.9286C31.9707 90.7567 32.2148 88.0061 32.2148 83.6767V73.7646H52.7715V76.8407C52.7715 85.0113 52.1855 90.8056 51.0137 94.2235C49.8743 97.6415 47.319 100.636 43.3477 103.208C39.4089 105.78 34.5423 107.065 28.748 107.065C22.7259 107.065 17.7617 105.975 13.8555 103.794C9.94922 101.613 7.36133 98.6018 6.0918 94.7607C4.82227 90.887 4.1875 85.0764 4.1875 77.329V54.2333C4.1875 48.5367 4.38281 44.2724 4.77344 41.4403C5.16406 38.5758 6.31966 35.8251 8.24023 33.1884C10.1934 30.5517 12.8789 28.4846 16.2969 26.9872C19.7474 25.4573 23.7025 24.6923 28.1621 24.6923C34.2168 24.6923 39.2135 25.8642 43.1523 28.2079C47.0911 30.5517 49.679 33.4814 50.916 36.997C52.153 40.4801 52.7715 45.9162 52.7715 53.3056V60.8251ZM107.41 26.3524V105.405H86.8535V72.2021H80.7012V105.405H60.1445V26.3524H80.7012V54.6239H86.8535V26.3524H107.41ZM115.711 26.3524H149.988V42.1728H136.268V57.163H149.109V72.2021H136.268V89.5849H151.355V105.405H115.711V26.3524ZM206.141 26.3524L195.691 105.405H164.49L152.625 26.3524H174.305C176.811 48.1298 178.602 66.538 179.676 81.5771C180.75 66.3752 181.873 52.8661 183.045 41.0497L184.461 26.3524H206.141ZM209.656 26.3524H224.207C233.908 26.3524 240.467 26.7268 243.885 27.4755C247.335 28.2242 250.135 30.1448 252.283 33.2372C254.464 36.2971 255.555 41.1962 255.555 47.9345C255.555 54.0868 254.79 58.2209 253.26 60.3368C251.73 62.4527 248.719 63.7222 244.227 64.1454C248.296 65.1545 251.03 66.5054 252.43 68.1982C253.829 69.8909 254.692 71.4534 255.018 72.8857C255.376 74.2854 255.555 78.1754 255.555 84.5556V105.405H236.463V79.1357C236.463 74.9039 236.121 72.2834 235.438 71.2743C234.786 70.2652 233.045 69.7607 230.213 69.7607V105.405H209.656V26.3524ZM230.213 39.8778V57.456C232.524 57.456 234.135 57.1467 235.047 56.5282C235.991 55.8772 236.463 53.8101 236.463 50.3271V45.9814C236.463 43.4748 236.007 41.831 235.096 41.0497C234.217 40.2685 232.589 39.8778 230.213 39.8778ZM310.535 72.6415C310.535 80.5842 310.34 86.2157 309.949 89.536C309.591 92.8238 308.419 95.8349 306.434 98.5692C304.48 101.304 301.827 103.403 298.475 104.868C295.122 106.333 291.215 107.065 286.756 107.065C282.524 107.065 278.715 106.382 275.33 105.015C271.977 103.615 269.275 101.531 267.225 98.7646C265.174 95.9976 263.953 92.9866 263.562 89.7314C263.172 86.4761 262.977 80.7795 262.977 72.6415V59.1161C262.977 51.1734 263.156 45.5582 263.514 42.2704C263.904 38.9501 265.076 35.9228 267.029 33.1884C269.015 30.454 271.684 28.3544 275.037 26.8896C278.39 25.4247 282.296 24.6923 286.756 24.6923C290.988 24.6923 294.78 25.3922 298.133 26.7919C301.518 28.1591 304.236 30.2261 306.287 32.9931C308.338 35.76 309.559 38.7711 309.949 42.0263C310.34 45.2815 310.535 50.9781 310.535 59.1161V72.6415ZM289.979 46.6649C289.979 42.9866 289.767 40.6428 289.344 39.6337C288.953 38.592 288.123 38.0712 286.854 38.0712C285.779 38.0712 284.949 38.4944 284.363 39.3407C283.81 40.1545 283.533 42.5959 283.533 46.6649V83.579C283.533 88.1689 283.712 91.0009 284.07 92.0751C284.461 93.1493 285.34 93.6864 286.707 93.6864C288.107 93.6864 289.002 93.0679 289.393 91.831C289.783 90.594 289.979 87.648 289.979 82.9931V46.6649ZM338.807 26.3524V89.5849H351.307V105.405H318.25V26.3524H338.807ZM356.336 26.3524H390.613V42.1728H376.893V57.163H389.734V72.2021H376.893V89.5849H391.98V105.405H356.336V26.3524ZM437.977 26.3524V42.1728H425.77V105.405H405.213V42.1728H393.055V26.3524H437.977ZM561.365 60.8251H540.809V47.0556C540.809 43.0517 540.581 40.5614 540.125 39.5849C539.702 38.5758 538.742 38.0712 537.244 38.0712C535.551 38.0712 534.477 38.6734 534.021 39.8778C533.566 41.0823 533.338 43.6864 533.338 47.6903V84.4091C533.338 88.2502 533.566 90.7567 534.021 91.9286C534.477 93.1005 535.503 93.6864 537.098 93.6864C538.628 93.6864 539.62 93.1005 540.076 91.9286C540.564 90.7567 540.809 88.0061 540.809 83.6767V73.7646H561.365V76.8407C561.365 85.0113 560.779 90.8056 559.607 94.2235C558.468 97.6415 555.913 100.636 551.941 103.208C548.003 105.78 543.136 107.065 537.342 107.065C531.32 107.065 526.355 105.975 522.449 103.794C518.543 101.613 515.955 98.6018 514.686 94.7607C513.416 90.887 512.781 85.0764 512.781 77.329V54.2333C512.781 48.5367 512.977 44.2724 513.367 41.4403C513.758 38.5758 514.913 35.8251 516.834 33.1884C518.787 30.5517 521.473 28.4846 524.891 26.9872C528.341 25.4573 532.296 24.6923 536.756 24.6923C542.811 24.6923 547.807 25.8642 551.746 28.2079C555.685 30.5517 558.273 33.4814 559.51 36.997C560.747 40.4801 561.365 45.9162 561.365 53.3056V60.8251ZM604.236 26.3524L616.004 105.405H594.959L593.934 91.1962H586.561L585.34 105.405H564.051L574.5 26.3524H604.236ZM593.348 77.1825C592.306 68.2307 591.264 57.1793 590.223 44.0282C588.139 59.1324 586.837 70.1838 586.316 77.1825H593.348ZM682.947 26.3524V105.405H664.979V52.036L657.801 105.405H645.057L637.488 53.2567V105.405H619.52V26.3524H646.131C646.912 31.1051 647.742 36.704 648.621 43.1493L651.453 63.2665L656.141 26.3524H682.947ZM726.697 26.3524L738.465 105.405H717.42L716.395 91.1962H709.021L707.801 105.405H686.512L696.961 26.3524H726.697ZM715.809 77.1825C714.767 68.2307 713.725 57.1793 712.684 44.0282C710.6 59.1324 709.298 70.1838 708.777 77.1825H715.809ZM741.98 26.3524H756.531C766.232 26.3524 772.791 26.7268 776.209 27.4755C779.66 28.2242 782.459 30.1448 784.607 33.2372C786.788 36.2971 787.879 41.1962 787.879 47.9345C787.879 54.0868 787.114 58.2209 785.584 60.3368C784.054 62.4527 781.043 63.7222 776.551 64.1454C780.62 65.1545 783.354 66.5054 784.754 68.1982C786.154 69.8909 787.016 71.4534 787.342 72.8857C787.7 74.2854 787.879 78.1754 787.879 84.5556V105.405H768.787V79.1357C768.787 74.9039 768.445 72.2834 767.762 71.2743C767.111 70.2652 765.369 69.7607 762.537 69.7607V105.405H741.98V26.3524ZM762.537 39.8778V57.456C764.848 57.456 766.46 57.1467 767.371 56.5282C768.315 55.8772 768.787 53.8101 768.787 50.3271V45.9814C768.787 43.4748 768.331 41.831 767.42 41.0497C766.541 40.2685 764.913 39.8778 762.537 39.8778ZM842.859 72.6415C842.859 80.5842 842.664 86.2157 842.273 89.536C841.915 92.8238 840.743 95.8349 838.758 98.5692C836.805 101.304 834.152 103.403 830.799 104.868C827.446 106.333 823.54 107.065 819.08 107.065C814.848 107.065 811.04 106.382 807.654 105.015C804.301 103.615 801.6 101.531 799.549 98.7646C797.498 95.9976 796.277 92.9866 795.887 89.7314C795.496 86.4761 795.301 80.7795 795.301 72.6415V59.1161C795.301 51.1734 795.48 45.5582 795.838 42.2704C796.229 38.9501 797.4 35.9228 799.354 33.1884C801.339 30.454 804.008 28.3544 807.361 26.8896C810.714 25.4247 814.62 24.6923 819.08 24.6923C823.312 24.6923 827.104 25.3922 830.457 26.7919C833.842 28.1591 836.561 30.2261 838.611 32.9931C840.662 35.76 841.883 38.7711 842.273 42.0263C842.664 45.2815 842.859 50.9781 842.859 59.1161V72.6415ZM822.303 46.6649C822.303 42.9866 822.091 40.6428 821.668 39.6337C821.277 38.592 820.447 38.0712 819.178 38.0712C818.104 38.0712 817.273 38.4944 816.688 39.3407C816.134 40.1545 815.857 42.5959 815.857 46.6649V83.579C815.857 88.1689 816.036 91.0009 816.395 92.0751C816.785 93.1493 817.664 93.6864 819.031 93.6864C820.431 93.6864 821.326 93.0679 821.717 91.831C822.107 90.594 822.303 87.648 822.303 82.9931V46.6649Z" fill="white"/>
</svg>
