<svg width="14" height="16" viewBox="0 0 14 16" fill="none" xmlns="http://www.w3.org/2000/svg">
<path fill-rule="evenodd" clip-rule="evenodd" d="M0.625 6.93217C0.625 3.48227 3.50791 0.693848 6.99508 0.693848C10.4921 0.693848 13.375 3.48227 13.375 6.93217C13.375 8.67062 12.7428 10.2846 11.7021 11.6525C10.5541 13.1615 9.13912 14.4762 7.54641 15.5082C7.18188 15.7467 6.85291 15.7647 6.45284 15.5082C4.85105 14.4762 3.43607 13.1615 2.29787 11.6525C1.25649 10.2846 0.625 8.67062 0.625 6.93217ZM4.89563 7.1264C4.89563 8.28212 5.83871 9.19109 6.99505 9.19109C8.15214 9.19109 9.10429 8.28212 9.10429 7.1264C9.10429 5.97969 8.15214 5.02646 6.99505 5.02646C5.83871 5.02646 4.89563 5.97969 4.89563 7.1264Z" fill="#C2C2C2"/>
</svg>
